#define 117_width 16
#define 117_height 16
static unsigned char 117_bits[] = {
   0x02, 0x60, 0xfe, 0xff, 0x86, 0x61, 0x86, 0x61, 0x86, 0x61, 0x86, 0x61,
   0x86, 0x61, 0xfe, 0x7f, 0x86, 0x61, 0x86, 0x61, 0x86, 0x61, 0x86, 0x61,
   0x86, 0x61, 0x86, 0x61, 0xfe, 0x7f, 0x06, 0x60};
