#define 137_width 16
#define 137_height 16
static unsigned char 137_bits[] = {
   0x00, 0x00, 0x00, 0x00, 0x00, 0x00, 0x00, 0x00, 0x00, 0x00, 0x01, 0x60,
   0xff, 0xff, 0x23, 0x62, 0x23, 0x62, 0xff, 0x7f, 0x03, 0x60, 0x00, 0x00,
   0x00, 0x00, 0x00, 0x00, 0x00, 0x00, 0x00, 0x00};
