#define 14_width 16
#define 14_height 16
static unsigned char 14_bits[] = {
   0x00, 0x00, 0x00, 0x00, 0x00, 0x00, 0x00, 0x00, 0x00, 0x00, 0x04, 0x00,
   0x04, 0x30, 0xfe, 0x7f, 0x06, 0x30, 0x03, 0x10, 0x00, 0x08, 0x00, 0x00,
   0x00, 0x00, 0x00, 0x00, 0x00, 0x00, 0x00, 0x00};
