#define 147_width 16
#define 147_height 16
static unsigned char 147_bits[] = {
   0x00, 0x30, 0xff, 0x7f, 0xc0, 0x01, 0x41, 0x30, 0xff, 0x3f, 0x33, 0x33,
   0x33, 0x33, 0x33, 0x33, 0x33, 0x33, 0x33, 0x33, 0x33, 0x33, 0x33, 0x33,
   0x33, 0x33, 0x33, 0x33, 0x33, 0x3b, 0x03, 0x10};
