#define 156_width 16
#define 156_height 16
static unsigned char 156_bits[] = {
   0x00, 0x1c, 0xc0, 0x0f, 0xfc, 0x00, 0xc0, 0x00, 0xc0, 0x00, 0xc0, 0x30,
   0xff, 0x7f, 0xc0, 0x00, 0xc0, 0x00, 0xc2, 0x18, 0xfe, 0x1f, 0x06, 0x18,
   0x06, 0x18, 0x06, 0x18, 0xfe, 0x1f, 0x06, 0x18};
