#define 170_width 16
#define 170_height 16
static unsigned char 170_bits[] = {
   0x00, 0x08, 0xf8, 0x1f, 0x00, 0x40, 0xff, 0xff, 0x00, 0x08, 0xf8, 0x1f,
   0x00, 0x08, 0xf8, 0x1f, 0x00, 0x00, 0x18, 0x18, 0xf8, 0x1f, 0x18, 0x18,
   0x18, 0x18, 0x18, 0x18, 0xf8, 0x1f, 0x18, 0x18};
