#define 172_width 16
#define 172_height 16
static unsigned char 172_bits[] = {
   0x00, 0x30, 0xfe, 0x7f, 0x00, 0x00, 0x08, 0x18, 0xf8, 0x3f, 0x18, 0x18,
   0x18, 0x18, 0xf8, 0x1f, 0x18, 0x18, 0x00, 0x00, 0x08, 0x08, 0x30, 0x1c,
   0x60, 0x0c, 0x60, 0x06, 0x00, 0x61, 0xff, 0xff};
