#define 178_width 16
#define 178_height 16
static unsigned char 178_bits[] = {
   0x18, 0x18, 0xf8, 0x3f, 0x18, 0x18, 0x18, 0x18, 0x18, 0x18, 0x18, 0x18,
   0xf8, 0x1f, 0x98, 0x19, 0x88, 0x01, 0xb8, 0x01, 0x98, 0x19, 0x8c, 0x3f,
   0xb4, 0x01, 0xe2, 0x01, 0xc2, 0xff, 0x01, 0x7e};
