#define 19_width 16
#define 19_height 16
static unsigned char 19_bits[] = {
   0xc0, 0x01, 0xc0, 0x00, 0xc0, 0x30, 0xfe, 0x7f, 0xc0, 0x30, 0xc0, 0x30,
   0xc0, 0x30, 0xc0, 0x30, 0xc0, 0x30, 0x60, 0x30, 0x60, 0x30, 0x60, 0x30,
   0x30, 0x30, 0x10, 0x18, 0x0c, 0x1f, 0x07, 0x0c};
