#define 205_width 16
#define 205_height 16
static unsigned char 205_bits[] = {
   0xe0, 0x1c, 0x60, 0x4c, 0x7e, 0xfc, 0x60, 0x0c, 0x60, 0x0c, 0x60, 0x2c,
   0x7c, 0x7c, 0x60, 0x0c, 0x60, 0x0c, 0x60, 0x2c, 0x7c, 0x7c, 0x60, 0x0c,
   0x60, 0x0c, 0x60, 0x4c, 0xff, 0xff, 0x00, 0x00};
