#define 22_width 16
#define 22_height 16
static unsigned char 22_bits[] = {
   0x02, 0x60, 0xfe, 0xff, 0x06, 0x00, 0x06, 0x00, 0x06, 0x00, 0x06, 0x00,
   0x06, 0x00, 0x06, 0x00, 0x06, 0x00, 0x06, 0x00, 0x06, 0x00, 0x06, 0x00,
   0x06, 0x00, 0x06, 0x60, 0xfe, 0xff, 0x06, 0x00};
