#define 237_width 16
#define 237_height 16
static unsigned char 237_bits[] = {
0x08, 0x08,
0x08, 0x08,
0x7f, 0xff,
0x08, 0x08,
0x3e, 0x08,
0x00, 0x7f,
0x3e, 0x42,
0x22, 0x62,
0x22, 0x26,
0x3e, 0x34,
0x00, 0x1c,
0x22, 0x08,
0x26, 0x1c,
0x74, 0x36,
0x1c, 0x63,
0x87, 0xc1,
};