#define 240_width 16
#define 240_height 16
static unsigned char 240_bits[] = {
0x20, 0x04,
0xff, 0xff,
0x20, 0x04,
0x80, 0x00,
0xff, 0xff,
0x20, 0x02,
0x5e, 0x7d,
0x94, 0x24,
0x9a, 0x4c,
0x80, 0x00,
0x04, 0x20,
0xfc, 0x3f,
0x04, 0x20,
0xfc, 0x3f,
0x06, 0x20,
0x03, 0x20,
};