#define 30_width 16
#define 30_height 16
static unsigned char 30_bits[] = {
   0x00, 0x00, 0x00, 0x00, 0x00, 0x00, 0x08, 0x08, 0xf8, 0x3f, 0x18, 0x18,
   0x18, 0x18, 0x18, 0x18, 0x18, 0x18, 0x18, 0x18, 0x18, 0x18, 0xf8, 0x1f,
   0x18, 0x18, 0x00, 0x00, 0x00, 0x00, 0x00, 0x00};
