#define 32_width 16
#define 32_height 16
static unsigned char 32_bits[] = {
   0x80, 0x03, 0x80, 0x01, 0x80, 0x01, 0x80, 0x01, 0x80, 0x01, 0x80, 0x19,
   0xfc, 0x3f, 0x80, 0x01, 0x80, 0x01, 0x80, 0x01, 0x80, 0x01, 0x80, 0x01,
   0x80, 0x01, 0x80, 0x01, 0x80, 0x61, 0xff, 0xff};
