#define 55_width 16
#define 55_height 16
static unsigned char 55_bits[] = {
   0x70, 0x0e, 0x30, 0x06, 0x30, 0x06, 0x30, 0x06, 0x30, 0x06, 0x30, 0x46,
   0xff, 0xff, 0x30, 0x06, 0x30, 0x06, 0x30, 0x06, 0x30, 0x06, 0x18, 0x06,
   0x18, 0x06, 0x0c, 0x06, 0x06, 0x06, 0x03, 0x06};
