#define 72_width 16
#define 72_height 16
static unsigned char 72_bits[] = {
   0x00, 0x38, 0xc0, 0x1f, 0xfc, 0x01, 0x80, 0x01, 0x80, 0x21, 0xfe, 0x7f,
   0x80, 0x01, 0x80, 0x01, 0x80, 0x41, 0xff, 0xff, 0x80, 0x01, 0x80, 0x01,
   0x80, 0x01, 0x80, 0x01, 0xf0, 0x01, 0xc0, 0x00};
