#define 77_width 16
#define 77_height 16
static unsigned char 77_bits[] = {
   0x00, 0x1c, 0x84, 0x3f, 0xfc, 0x03, 0x0c, 0x00, 0x0c, 0x60, 0xfc, 0xff,
   0x0c, 0x03, 0x0c, 0x03, 0x0c, 0x03, 0x0c, 0x03, 0x0c, 0x03, 0x04, 0x03,
   0x06, 0x03, 0x02, 0x03, 0x03, 0x03, 0x00, 0x03};
