#define 80_width 16
#define 80_height 16
static unsigned char 80_bits[] = {
   0x04, 0x18, 0xfc, 0x3f, 0x0c, 0x18, 0x0c, 0x18, 0x0c, 0x18, 0x0c, 0x18,
   0x0c, 0x18, 0xfc, 0x1f, 0x0c, 0x18, 0x0c, 0x18, 0x0c, 0x18, 0x0c, 0x18,
   0x0c, 0x18, 0x0c, 0x18, 0xfc, 0x1f, 0x0c, 0x18};
